<svg width="231" height="232" viewBox="0 0 231 232" fill="none" xmlns="http://www.w3.org/2000/svg">
<path d="M203.549 118.141L203.498 118.959C203.378 120.908 202.764 122.395 201.656 123.421C200.564 124.448 199.151 124.907 197.417 124.8C196.212 124.726 195.154 124.395 194.246 123.808C193.353 123.223 192.679 122.46 192.224 121.52C191.784 120.581 191.599 119.55 191.669 118.427L191.681 118.229L184.918 117.81L184.968 116.993L203.549 118.141ZM192.384 118.521C192.291 120.024 192.678 121.283 193.543 122.298C194.425 123.314 195.717 123.875 197.418 123.98C199.037 124.08 200.304 123.702 201.219 122.847C202.149 122.009 202.665 120.764 202.767 119.113L202.78 118.915L192.399 118.273L192.384 118.521Z" fill="#E6E6E6"/>
<path d="M195.312 127.144L195.175 127.927L192.632 127.482C193.374 127.948 193.919 128.53 194.267 129.229C194.612 129.945 194.715 130.702 194.575 131.501C194.486 132.006 194.291 132.501 193.988 132.985L193.083 132.827C193.524 132.417 193.796 131.919 193.899 131.332C194.001 130.745 193.922 130.143 193.66 129.526C193.396 128.926 192.992 128.402 192.449 127.954C191.903 127.522 191.287 127.247 190.603 127.127L184.172 126.002L184.309 125.22L195.312 127.144Z" fill="#E6E6E6"/>
<path d="M195.84 137.139C195.9 136.915 196.034 136.737 196.242 136.605C196.445 136.488 196.666 136.463 196.906 136.528C197.129 136.588 197.299 136.72 197.416 136.923C197.528 137.142 197.553 137.363 197.493 137.587C197.432 137.81 197.301 137.98 197.098 138.097C196.89 138.229 196.675 138.265 196.451 138.205C196.212 138.14 196.036 137.998 195.924 137.779C195.807 137.576 195.779 137.362 195.84 137.139ZM193.476 136.087L193.268 136.853L182.488 133.932L182.695 133.165L193.476 136.087Z" fill="#E6E6E6"/>
<path d="M188.562 150.124L179.867 140.819L192.578 139.888L192.261 140.696L181.554 141.481L188.879 149.315L188.562 150.124Z" fill="#E6E6E6"/>
<path d="M174.995 150.911C175.543 150.006 176.28 149.301 177.204 148.797C178.129 148.292 179.11 148.045 180.149 148.055C181.202 148.074 182.174 148.353 183.065 148.894C183.957 149.434 184.648 150.162 185.138 151.077C185.642 152.002 185.885 152.991 185.866 154.043C185.848 155.096 185.564 156.075 185.015 156.981C184.458 157.901 183.683 158.622 182.69 159.142C181.712 159.672 180.735 159.864 179.759 159.718L182.158 161.171L181.747 161.85L172.193 156.063L172.605 155.384L174.982 156.824C174.421 155.962 174.144 154.982 174.152 153.883C174.165 152.808 174.446 151.817 174.995 150.911ZM175.563 151.314C175.092 152.092 174.853 152.934 174.846 153.84C174.854 154.753 175.074 155.603 175.508 156.388C175.947 157.196 176.563 157.84 177.356 158.32C178.134 158.791 178.983 159.035 179.903 159.05C180.822 159.065 181.681 158.86 182.481 158.435C183.294 158.018 183.936 157.421 184.408 156.642C184.879 155.864 185.116 155.011 185.117 154.083C185.109 153.169 184.89 152.301 184.459 151.479C184.02 150.671 183.411 150.032 182.633 149.56C181.854 149.089 181.005 148.845 180.086 148.83C179.172 148.837 178.304 149.057 177.482 149.487C176.674 149.927 176.035 150.536 175.563 151.314Z" fill="#E6E6E6"/>
<path d="M167.943 160.971C168.713 160.019 169.642 159.462 170.731 159.299C171.809 159.15 172.857 159.486 173.873 160.308L182.906 167.612L182.407 168.23L178.913 165.405L176.76 168.068L176.219 167.631L178.373 164.968L173.374 160.926C172.525 160.239 171.653 159.949 170.758 160.056C169.866 160.185 169.107 160.636 168.483 161.408L167.943 160.971Z" fill="#E6E6E6"/>
<path d="M163.529 166.326C162.912 166.925 162.48 167.656 162.234 168.519C161.987 169.381 161.951 170.27 162.125 171.185L161.243 170.277C161.209 169.364 161.344 168.541 161.647 167.808C161.962 167.087 162.452 166.404 163.116 165.758C163.852 165.043 164.737 164.565 165.77 164.322C166.792 164.091 167.815 164.112 168.841 164.384C169.855 164.668 170.719 165.178 171.434 165.914C172.207 166.709 172.709 167.606 172.94 168.604C173.183 169.614 173.15 170.614 172.844 171.604C172.525 172.606 171.962 173.499 171.155 174.283C169.92 175.482 168.397 176.016 166.585 175.884L166.814 164.934C166.111 164.994 165.501 165.126 164.983 165.329C164.477 165.544 163.992 165.876 163.529 166.326ZM170.916 166.521C169.959 165.536 168.814 165.01 167.481 164.944L167.297 175.192C168.023 175.156 168.639 175.03 169.146 174.815C169.664 174.612 170.178 174.263 170.688 173.767C171.412 173.064 171.903 172.275 172.162 171.401C172.42 170.551 172.444 169.697 172.234 168.84C172.024 167.982 171.585 167.209 170.916 166.521Z" fill="#E6E6E6"/>
<path d="M150.516 175.389C151.173 174.974 151.868 174.742 152.599 174.691C153.339 174.654 154.042 174.807 154.709 175.15C155.375 175.493 155.92 176 156.344 176.671L164.16 189.056L163.488 189.48L155.672 177.095C155.319 176.536 154.875 176.111 154.341 175.823C153.792 175.543 153.21 175.411 152.594 175.428C151.988 175.458 151.418 175.642 150.887 175.977L150.516 175.389Z" fill="#E6E6E6"/>
<path d="M144.056 178.507C145.081 178.042 146.121 177.87 147.175 177.991C148.236 178.127 149.189 178.503 150.032 179.12C150.882 179.751 151.53 180.557 151.974 181.536C152.412 182.5 152.586 183.503 152.495 184.544C152.389 185.591 152.039 186.541 151.444 187.392C150.841 188.266 150.035 188.932 149.026 189.39C148.031 189.842 147.014 190.004 145.975 189.876C144.927 189.77 143.982 189.409 143.138 188.792C142.295 188.176 141.654 187.385 141.217 186.421C140.758 185.412 140.563 184.382 140.632 183.333C140.708 182.299 141.04 181.349 141.628 180.482C142.207 179.638 143.017 178.979 144.056 178.507ZM144.344 179.14C143.485 179.53 142.801 180.104 142.291 180.863C141.781 181.621 141.495 182.451 141.431 183.352C141.36 184.275 141.522 185.174 141.919 186.047C142.309 186.906 142.875 187.612 143.617 188.166C144.359 188.72 145.184 189.054 146.09 189.169C146.997 189.285 147.879 189.147 148.738 188.757C149.597 188.368 150.285 187.782 150.803 187.002C151.313 186.243 151.611 185.399 151.698 184.469C151.77 183.546 151.61 182.655 151.22 181.797C150.83 180.938 150.264 180.232 149.522 179.678C148.772 179.146 147.944 178.823 147.037 178.708C146.115 178.599 145.218 178.743 144.344 179.14Z" fill="#E6E6E6"/>
<path d="M132.845 182.607C134.367 182.213 135.653 182.325 136.701 182.943C137.734 183.564 138.447 184.636 138.841 186.158L140.47 192.454L139.701 192.653L138.072 186.357C137.732 185.043 137.124 184.115 136.249 183.573C135.362 183.05 134.285 182.953 133.02 183.28C132.251 183.479 131.589 183.83 131.036 184.332C130.486 184.85 130.108 185.47 129.901 186.19C129.694 186.91 129.695 187.67 129.902 188.471L131.531 194.767L130.762 194.966L127.964 184.153L128.733 183.954L129.255 185.972C129.449 185.204 129.859 184.508 130.484 183.885C131.113 183.278 131.9 182.852 132.845 182.607Z" fill="#E6E6E6"/>
<path d="M127.306 195.537L126.515 195.604L126.305 193.131C126.012 193.986 125.45 194.698 124.618 195.267C123.788 195.853 122.845 196.19 121.79 196.28C120.421 196.396 119.304 196.051 118.438 195.245C117.557 194.456 117.051 193.287 116.919 191.737L116.368 185.257L117.16 185.19L117.711 191.67C117.824 193.005 118.242 194.016 118.965 194.702C119.671 195.389 120.61 195.683 121.78 195.583C122.638 195.51 123.412 195.245 124.104 194.788C124.781 194.348 125.305 193.772 125.676 193.06C126.031 192.349 126.171 191.565 126.099 190.707L125.568 184.475L126.36 184.407L127.306 195.537Z" fill="#E6E6E6"/>
<path d="M109.694 179.66C110.633 179.75 111.526 180.053 112.374 180.567C113.222 181.081 113.86 181.708 114.287 182.448L114.177 183.584C113.826 182.752 113.222 182.029 112.367 181.414C111.496 180.798 110.583 180.444 109.627 180.351C108.046 180.199 106.782 180.55 105.835 181.406C104.889 182.246 104.329 183.563 104.156 185.358L103.996 187.014C104.526 186.167 105.296 185.51 106.306 185.043C107.297 184.59 108.312 184.414 109.349 184.514C110.404 184.616 111.358 184.974 112.213 185.589C113.068 186.204 113.716 186.981 114.157 187.921C114.596 188.878 114.766 189.876 114.666 190.913C114.565 191.951 114.209 192.889 113.596 193.727C112.981 194.582 112.195 195.23 111.238 195.669C110.281 196.108 109.276 196.277 108.222 196.175C107.135 196.07 106.156 195.701 105.287 195.069C104.417 194.436 103.804 193.637 103.449 192.671L103.181 195.438L102.39 195.362L103.365 185.282C103.561 183.256 104.203 181.772 105.292 180.83C106.366 179.87 107.833 179.48 109.694 179.66ZM109.233 185.201C108.327 185.113 107.465 185.263 106.646 185.649C105.826 186.052 105.156 186.619 104.636 187.35C104.099 188.096 103.785 188.93 103.696 189.853C103.607 190.775 103.756 191.645 104.142 192.464C104.51 193.298 105.059 193.983 105.789 194.519C106.517 195.071 107.333 195.391 108.239 195.479C109.162 195.568 110.041 195.412 110.878 195.011C111.697 194.624 112.383 194.059 112.937 193.315C113.473 192.585 113.786 191.759 113.875 190.837C113.964 189.914 113.817 189.036 113.432 188.2C113.029 187.38 112.464 186.694 111.736 186.141C110.99 185.604 110.156 185.29 109.233 185.201Z" fill="#E6E6E6"/>
<path d="M96.0489 182.732C95.2192 182.504 94.3702 182.502 93.5018 182.727C92.6335 182.951 91.8488 183.371 91.148 183.984L91.4837 182.764C92.254 182.272 93.0318 181.971 93.8172 181.861C94.5982 181.767 95.4355 181.843 96.329 182.089C97.3182 182.361 98.1791 182.881 98.9118 183.649C99.6285 184.412 100.129 185.305 100.415 186.327C100.684 187.345 100.682 188.349 100.41 189.338C100.116 190.407 99.5976 191.294 98.8544 191.999C98.1069 192.721 97.2285 193.2 96.2193 193.437C95.1942 193.67 94.1392 193.637 93.0542 193.339C91.3949 192.882 90.1628 191.84 89.358 190.211L98.9135 184.859C98.5055 184.283 98.0827 183.824 97.6452 183.48C97.2032 183.153 96.6711 182.904 96.0489 182.732ZM99.6246 189.199C99.9889 187.875 99.8618 186.622 99.2432 185.439L90.3153 190.474C90.7145 191.082 91.1351 191.549 91.5771 191.877C92.0146 192.22 92.5764 192.486 93.2625 192.675C94.2357 192.943 95.1645 192.967 96.0489 192.747C96.9128 192.538 97.6612 192.126 98.2938 191.511C98.9265 190.895 99.3701 190.125 99.6246 189.199Z" fill="#E6E6E6"/>
<path d="M83.1764 176.799C83.8775 177.172 84.436 177.619 84.852 178.141C85.2602 178.677 85.48 179.197 85.5115 179.701L84.8932 180.862C84.9501 180.087 84.8192 179.417 84.5006 178.854C84.1742 178.305 83.6385 177.832 82.8936 177.435C82.1779 177.054 81.4843 176.966 80.8128 177.171C80.1335 177.391 79.6072 177.851 79.2339 178.552C78.915 179.151 78.7942 179.677 78.8713 180.13C78.9408 180.599 79.1635 181.148 79.5397 181.78L80.1155 182.705C80.5199 183.389 80.821 183.915 81.0189 184.283C81.1943 184.658 81.2997 185.023 81.3349 185.379C81.3624 185.75 81.279 186.118 81.0845 186.483C80.7734 187.068 80.32 187.426 79.7244 187.559C79.1288 187.692 78.5023 187.583 77.8451 187.233C77.0418 186.805 76.4671 186.265 76.1212 185.612L76.6345 184.648C76.7684 185.488 77.2589 186.133 78.106 186.584C78.5734 186.833 79.0154 186.919 79.4319 186.841C79.8485 186.762 80.154 186.541 80.3484 186.176C80.5195 185.854 80.5836 185.523 80.5405 185.181C80.4897 184.854 80.3654 184.507 80.1675 184.139C79.9551 183.763 79.5926 183.177 79.0801 182.379C78.5608 181.559 78.2464 180.829 78.137 180.189C78.0198 179.564 78.1517 178.894 78.5328 178.179C79.015 177.273 79.7033 176.702 80.5977 176.466C81.4697 176.237 82.3293 176.348 83.1764 176.799Z" fill="#E6E6E6"/>
<path d="M71.9832 183.731L71.3461 183.257L72.9763 181.067C72.0844 181.517 71.0971 181.679 70.0144 181.554C68.9218 181.442 67.9574 181.075 67.1211 180.453C66.2583 179.811 65.6266 179.01 65.2259 178.052C64.812 177.084 64.6594 176.083 64.7682 175.05C64.8769 174.017 65.2475 173.076 65.8798 172.226C66.5121 171.377 67.3074 170.752 68.2657 170.351C69.224 169.951 70.2263 169.81 71.2725 169.928C72.3055 170.037 73.2534 170.412 74.1162 171.055C74.926 171.657 75.5461 172.459 75.9767 173.46C76.394 174.452 76.535 175.454 76.3997 176.467L80.9791 170.315L81.6163 170.789L71.9832 183.731ZM73.6614 171.582C72.9314 171.039 72.1161 170.721 71.2155 170.628C70.3051 170.549 69.4385 170.688 68.6158 171.045C67.7698 171.405 67.0702 171.957 66.517 172.701C65.9735 173.431 65.6506 174.253 65.548 175.167C65.4454 176.08 65.5678 176.955 65.915 177.791C66.2524 178.641 66.7861 179.337 67.5162 179.88C68.2463 180.424 69.0732 180.74 69.9968 180.829C70.9073 180.909 71.7921 180.773 72.6513 180.423C73.4972 180.062 74.1918 179.517 74.7352 178.787C75.2787 178.057 75.6016 177.235 75.7042 176.321C75.7836 175.41 75.648 174.526 75.2974 173.666C74.9368 172.821 74.3915 172.126 73.6614 171.582Z" fill="#E6E6E6"/>
<path d="M64.8707 162.752C65.5862 163.533 66.0562 164.437 66.2807 165.466C66.5052 166.495 66.4669 167.506 66.1659 168.5C65.8527 169.506 65.3117 170.36 64.5432 171.065C63.7746 171.769 62.882 172.228 61.8655 172.441C60.8367 172.666 59.8197 172.621 58.8144 172.308C57.8092 171.995 56.9488 171.448 56.2333 170.667C55.5066 169.874 55.0325 168.928 54.8111 167.829C54.5775 166.742 54.6676 165.75 55.0814 164.855L53.0136 166.749L52.4769 166.164L60.7118 158.618L61.2484 159.203L59.1989 161.081C60.1839 160.785 61.2025 160.794 62.2545 161.109C63.2831 161.424 64.1552 161.971 64.8707 162.752ZM64.3248 163.185C63.7099 162.514 62.969 162.048 62.1019 161.788C61.2227 161.539 60.3454 161.512 59.4702 161.708C58.5716 161.903 57.7807 162.314 57.0975 162.94C56.4265 163.555 55.9547 164.301 55.6821 165.179C55.4096 166.058 55.3652 166.94 55.5491 167.826C55.7207 168.724 56.114 169.508 56.7289 170.179C57.3438 170.85 58.0964 171.316 58.9868 171.578C59.8661 171.827 60.7606 171.86 61.6704 171.677C62.569 171.482 63.3538 171.077 64.0248 170.462C64.6958 169.848 65.1676 169.101 65.4401 168.223C65.6893 167.344 65.7225 166.449 65.5397 165.539C65.3446 164.641 64.9397 163.856 64.3248 163.185Z" fill="#E6E6E6"/>
<path d="M56.9071 152.303C57.4878 153.208 57.8079 154.183 57.8675 155.226C57.9182 156.255 57.7104 157.233 57.2442 158.161C56.7779 159.09 56.0712 159.857 55.1241 160.465C54.2466 161.028 53.2958 161.323 52.2717 161.351C51.2337 161.388 50.2461 161.166 49.309 160.686C48.363 160.192 47.5907 159.478 46.9921 158.545C46.4918 157.765 46.1883 157.016 46.0817 156.298C45.975 155.58 46.0166 154.787 46.2064 153.918L47.3346 153.194C46.9469 154.092 46.7621 154.938 46.7802 155.732C46.7754 156.521 47.0411 157.334 47.5771 158.17C48.0685 158.936 48.735 159.53 49.5767 159.954C50.3956 160.372 51.2688 160.569 52.1965 160.544C53.1241 160.519 53.971 160.261 54.7371 159.77C55.5728 159.234 56.1998 158.556 56.6182 157.737C57.0227 156.927 57.203 156.075 57.1592 155.179C57.0925 154.278 56.8135 153.444 56.3221 152.678C55.3214 151.118 53.8229 150.33 51.8265 150.313L52.9547 149.589C53.8056 149.751 54.5599 150.054 55.2177 150.497C55.8526 150.935 56.4157 151.537 56.9071 152.303Z" fill="#E6E6E6"/>
<path d="M51.1447 142.792C50.8007 142.003 50.2684 141.342 49.5479 140.807C48.8274 140.273 48.0082 139.927 47.0902 139.767L48.2505 139.261C49.1172 139.551 49.8402 139.967 50.4195 140.509C50.9836 141.057 51.4509 141.756 51.8214 142.605C52.2317 143.545 52.3685 144.542 52.2318 145.594C52.0886 146.632 51.7091 147.583 51.0932 148.447C50.4707 149.296 49.6893 149.926 48.7489 150.336C47.7327 150.78 46.7168 150.934 45.7012 150.799C44.6705 150.671 43.7457 150.289 42.9267 149.653C42.1012 149.003 41.4635 148.161 41.0136 147.13C40.3255 145.553 40.3618 143.939 41.1225 142.289L51.2916 146.357C51.4827 145.677 51.5744 145.06 51.5664 144.504C51.5433 143.954 51.4028 143.383 51.1447 142.792ZM48.3631 149.638C49.622 149.089 50.5169 148.202 51.0479 146.977L41.5195 143.199C41.298 143.892 41.1988 144.513 41.2219 145.062C41.2298 145.619 41.376 146.223 41.6605 146.875C42.0641 147.8 42.6295 148.537 43.3566 149.087C44.0619 149.628 44.8527 149.951 45.729 150.056C46.6054 150.161 47.4834 150.022 48.3631 149.638Z" fill="#E6E6E6"/>
<path d="M27.5369 120.403L27.5211 119.584C27.4834 117.632 27.9752 116.1 28.9964 114.988C30.0011 113.876 31.372 113.303 33.1091 113.27C34.3169 113.246 35.3974 113.49 36.3506 114.002C37.2874 114.513 38.0209 115.219 38.5514 116.119C39.0653 117.019 39.3331 118.032 39.3548 119.157L39.3586 119.356L46.1336 119.225L46.1494 120.044L27.5369 120.403ZM38.6341 119.121C38.6051 117.616 38.1181 116.392 37.173 115.45C36.2115 114.509 34.8787 114.055 33.1746 114.088C31.5532 114.119 30.3212 114.598 29.4784 115.524C28.6188 116.435 28.205 117.717 28.2369 119.372L28.2407 119.57L38.6389 119.369L38.6341 119.121Z" fill="#E6E6E6"/>
<path d="M35.0581 110.059L35.1376 109.269L37.7061 109.527C36.9324 109.116 36.3466 108.575 35.9485 107.903C35.5521 107.215 35.3945 106.467 35.4756 105.66C35.5269 105.15 35.6861 104.642 35.9532 104.137L36.8669 104.229C36.4567 104.67 36.2218 105.187 36.1621 105.779C36.1025 106.372 36.2257 106.966 36.5316 107.563C36.8392 108.142 37.2801 108.636 37.8546 109.043C38.4306 109.433 39.0644 109.663 39.7559 109.733L46.2511 110.386L46.1716 111.177L35.0581 110.059Z" fill="#E6E6E6"/>
<path d="M33.7548 100.353C33.7114 100.58 33.5913 100.768 33.3947 100.916C33.2011 101.047 32.9825 101.09 32.7386 101.043C32.5111 101 32.3315 100.882 32.2 100.688C32.0715 100.478 32.029 100.26 32.0724 100.032C32.1158 99.8044 32.2343 99.6248 32.4279 99.4933C32.6245 99.3455 32.8366 99.2933 33.0642 99.3367C33.308 99.3832 33.4941 99.5114 33.6226 99.7212C33.7541 99.9147 33.7982 100.125 33.7548 100.353ZM36.1917 101.222L36.3405 100.442L47.3123 102.534L47.1635 103.315L36.1917 101.222Z" fill="#E6E6E6"/>
<path d="M40.0253 86.8454L49.3943 95.4701L36.7893 97.3543L37.045 96.524L47.6626 94.9368L39.7697 87.6757L40.0253 86.8454Z" fill="#E6E6E6"/>
<path d="M53.4093 85.1681C52.9324 86.1137 52.2526 86.8736 51.37 87.4478C50.4874 88.022 49.5279 88.3443 48.4916 88.4147C47.4406 88.4776 46.4496 88.2744 45.5188 87.805C44.588 87.3355 43.8429 86.6632 43.2835 85.788C42.7093 84.9054 42.3907 83.9386 42.3278 82.8875C42.2648 81.8364 42.4718 80.8381 42.9487 79.8925C43.433 78.9322 44.1498 78.1539 45.0991 77.5578C46.0337 76.9542 46.9929 76.6874 47.9769 76.7574L45.4726 75.4944L45.8303 74.7852L55.8033 79.8149L55.4456 80.5241L52.9634 79.2722C53.5897 80.0884 53.9416 81.0443 54.0192 82.1398C54.0895 83.2131 53.8862 84.2226 53.4093 85.1681ZM52.8111 84.8109C53.2209 83.9982 53.3941 83.1404 53.3306 82.2373C53.2524 81.3268 52.9666 80.497 52.4734 79.7479C51.9728 78.9765 51.3089 78.3822 50.4815 77.9649C49.6688 77.5551 48.8036 77.3782 47.8858 77.4342C46.9679 77.4902 46.1271 77.7611 45.3632 78.2469C44.5845 78.7252 43.9902 79.3707 43.5804 80.1833C43.1706 80.9959 43.001 81.8649 43.0718 82.7902C43.1501 83.7007 43.4358 84.549 43.9289 85.3352C44.4294 86.1065 45.086 86.6971 45.8986 87.1069C46.7112 87.5168 47.5765 87.6937 48.4943 87.6376C49.4048 87.5594 50.2531 87.2737 51.0393 86.7806C51.8107 86.2801 52.4012 85.6235 52.8111 84.8109Z" fill="#E6E6E6"/>
<path d="M59.6488 74.6127C58.9541 75.621 58.0701 76.2478 56.9968 76.493C55.933 76.7246 54.8629 76.4695 53.7864 75.7278L44.2207 69.1371L44.6713 68.4831L48.3709 71.032L50.3143 68.2114L50.8866 68.6057L48.9432 71.4264L54.237 75.0738C55.1364 75.6934 56.028 75.9159 56.912 75.7413C57.7917 75.5436 58.5132 75.0359 59.0765 74.2184L59.6488 74.6127Z" fill="#E6E6E6"/>
<path d="M63.642 68.9011C64.2117 68.2563 64.5866 67.4945 64.7667 66.6158C64.9468 65.7372 64.9153 64.8482 64.6721 63.9488L65.6208 64.7869C65.7238 65.695 65.6521 66.5259 65.4057 67.2797C65.1468 68.0226 64.7106 68.7412 64.0971 69.4357C63.4178 70.2045 62.5723 70.7492 61.5605 71.0697C60.5596 71.3778 59.5374 71.4352 58.4937 71.2418C57.4611 71.0361 56.5603 70.5936 55.7915 69.9143C54.9606 69.1802 54.3919 68.3245 54.0852 67.347C53.7661 66.3585 53.7219 65.3589 53.9524 64.3482C54.194 63.325 54.6872 62.3918 55.4322 61.5485C56.5717 60.2588 58.0497 59.6106 59.8664 59.6037L60.4725 70.5391C61.1689 70.4257 61.7675 70.248 62.2684 70.006C62.7568 69.7531 63.2147 69.3848 63.642 68.9011ZM56.2616 69.2697C57.2909 70.1791 58.4726 70.616 59.8069 70.5803L59.209 60.3477C58.4879 60.4392 57.883 60.6115 57.3946 60.8644C56.8937 61.1064 56.4078 61.4941 55.9366 62.0273C55.2683 62.7838 54.8386 63.6075 54.6476 64.4986C54.455 65.3663 54.4961 66.2195 54.7707 67.0584C55.0454 67.8972 55.5423 68.6343 56.2616 69.2697Z" fill="#E6E6E6"/>
<path d="M75.797 58.9323C75.1731 59.3966 74.4986 59.6821 73.7734 59.7886C73.0383 59.8819 72.3255 59.7834 71.6349 59.4929C70.9442 59.2024 70.3618 58.7386 69.8876 58.1015L61.1437 46.3538L61.7809 45.8795L70.5247 57.6272C70.9199 58.1582 71.3951 58.5472 71.9502 58.7941C72.5185 59.0311 73.109 59.1177 73.7215 59.0537C74.3241 58.9765 74.8776 58.7502 75.382 58.3747L75.797 58.9323Z" fill="#E6E6E6"/>
<path d="M81.9347 55.3244C80.9494 55.868 79.9265 56.1204 78.8658 56.0819C77.7971 56.0289 76.8184 55.7278 75.9297 55.1786C75.0329 54.615 74.3248 53.8623 73.8052 52.9205C73.2937 51.9932 73.0427 51.0072 73.0523 49.9625C73.0763 48.9098 73.3517 47.9359 73.8784 47.0406C74.4115 46.1229 75.1635 45.3962 76.1342 44.8607C77.0905 44.3332 78.0918 44.0927 79.1379 44.1393C80.1906 44.1633 81.1613 44.4499 82.0501 44.999C82.9389 45.5482 83.639 46.2864 84.1505 47.2137C84.6861 48.1845 84.9603 49.1955 84.9732 50.2466C84.9781 51.2833 84.7212 52.2565 84.2026 53.1663C83.6904 54.0536 82.9345 54.773 81.9347 55.3244ZM81.599 54.7159C82.4249 54.2603 83.0624 53.6346 83.5116 52.8388C83.9609 52.0429 84.182 51.1933 84.1751 50.29C84.1746 49.3643 83.9426 48.4812 83.479 47.6408C83.0235 46.8149 82.4042 46.1549 81.6214 45.6607C80.8385 45.1666 79.9907 44.8972 79.0779 44.8527C78.1652 44.8082 77.2958 45.0137 76.4699 45.4693C75.644 45.9249 75.0033 46.5618 74.5476 47.3801C74.0983 48.176 73.8667 49.0408 73.8527 49.9746C73.8531 50.9003 74.0811 51.7762 74.5367 52.6021C74.9923 53.4279 75.6115 54.088 76.3943 54.5821C77.1837 55.0538 78.0348 55.3119 78.9475 55.3565C79.8748 55.393 80.7586 55.1795 81.599 54.7159Z" fill="#E6E6E6"/>
<path d="M92.9599 50.2589C91.4722 50.7667 90.1821 50.7524 89.0899 50.2159C88.0132 49.6742 87.221 48.6594 86.7133 47.1717L84.6128 41.017L85.3645 40.7605L87.465 46.9151C87.9033 48.1993 88.5794 49.0788 89.4933 49.5537C90.4175 50.0076 91.4982 50.0234 92.7354 49.6012C93.4871 49.3446 94.1201 48.945 94.6343 48.4024C95.1431 47.8441 95.4734 47.198 95.6251 46.4643C95.7769 45.7307 95.7191 44.9723 95.4519 44.1893L93.3514 38.0347L94.1031 37.7781L97.7108 48.349L96.9591 48.6056L96.2857 46.6323C96.15 47.413 95.7941 48.1377 95.218 48.8064C94.6366 49.4594 93.8839 49.9436 92.9599 50.2589Z" fill="#E6E6E6"/>
<path d="M97.2637 36.9642L98.0476 36.8364L98.4472 39.2861C98.6733 38.4109 99.1792 37.6578 99.9648 37.0266C100.748 36.3792 101.662 35.9702 102.707 35.7997C104.063 35.5786 105.203 35.8369 106.128 36.5746C107.067 37.2934 107.662 38.4203 107.912 39.9555L108.959 46.3739L108.175 46.5017L107.128 40.0834C106.912 38.7605 106.418 37.7849 105.645 37.1565C104.888 36.5255 103.93 36.3045 102.77 36.4936C101.921 36.6322 101.169 36.956 100.514 37.4652C99.8732 37.9554 99.395 38.5699 99.0796 39.3087C98.7805 40.0449 98.7002 40.8377 98.8388 41.6869L99.8457 47.8603L99.0618 47.9882L97.2637 36.9642Z" fill="#E6E6E6"/>
<path d="M116.145 51.3968C115.202 51.3786 114.288 51.1458 113.403 50.6984C112.518 50.251 111.834 49.6751 111.351 48.9706L111.373 47.8291C111.788 48.6315 112.445 49.3062 113.345 49.8532C114.261 50.4005 115.199 50.6834 116.158 50.7019C117.747 50.7326 118.98 50.2847 119.858 49.3583C120.737 48.4484 121.193 47.0918 121.228 45.2884L121.26 43.6257C120.796 44.5105 120.079 45.2249 119.109 45.7689C118.155 46.2966 117.157 46.5505 116.115 46.5303C115.056 46.5099 114.077 46.2262 113.177 45.6792C112.277 45.1322 111.571 44.4069 111.059 43.5033C110.547 42.5831 110.301 41.6019 110.321 40.5596C110.341 39.5173 110.625 38.5546 111.172 37.6714C111.719 36.7716 112.452 36.0659 113.372 35.554C114.292 35.0421 115.282 34.7964 116.341 34.8169C117.433 34.8379 118.437 35.1304 119.353 35.6943C120.269 36.2581 120.941 37.0076 121.37 37.9427L121.423 35.1632L122.218 35.1786L122.022 45.3038C121.983 47.3387 121.457 48.8678 120.444 49.8909C119.447 50.9309 118.014 51.4329 116.145 51.3968ZM116.178 45.8364C117.088 45.854 117.936 45.6387 118.722 45.1904C119.509 44.7256 120.134 44.1088 120.595 43.3398C121.074 42.5546 121.322 41.6988 121.34 40.7723C121.358 39.8458 121.143 38.9893 120.694 38.2027C120.263 37.4 119.663 36.7595 118.894 36.2812C118.126 35.7864 117.287 35.5303 116.377 35.5127C115.451 35.4948 114.586 35.7181 113.782 36.1826C112.996 36.6308 112.355 37.2473 111.86 38.0322C111.381 38.8009 111.133 39.6484 111.116 40.5749C111.098 41.5014 111.313 42.3662 111.761 43.1693C112.225 43.9561 112.842 44.5969 113.61 45.0917C114.395 45.5703 115.251 45.8185 116.178 45.8364Z" fill="#E6E6E6"/>
<path d="M129.655 47.2641C130.5 47.4285 131.347 47.3658 132.195 47.0759C133.044 46.786 133.795 46.3083 134.447 45.643L134.205 46.8855C133.474 47.4345 132.722 47.7937 131.947 47.9631C131.175 48.1163 130.335 48.1044 129.425 47.9273C128.418 47.7312 127.52 47.2782 126.731 46.5683C125.958 45.8615 125.391 45.0093 125.029 44.0116C124.683 43.017 124.608 42.0163 124.804 41.0092C125.016 39.921 125.466 38.997 126.153 38.2374C126.844 37.4615 127.683 36.9168 128.671 36.6035C129.676 36.2933 130.73 36.2457 131.835 36.4608C133.524 36.7897 134.832 37.7355 135.758 39.2982L126.637 45.3615C127.088 45.9044 127.544 46.3305 128.007 46.6397C128.472 46.9326 129.022 47.1408 129.655 47.2641ZM125.598 41.0879C125.336 42.4361 125.558 43.6762 126.264 44.8085L134.783 39.1085C134.339 38.5331 133.884 38.0989 133.419 37.806C132.956 37.4968 132.376 37.2742 131.677 37.1382C130.687 36.9453 129.759 36.9922 128.894 37.279C128.048 37.5527 127.333 38.0204 126.749 38.6822C126.165 39.3439 125.781 40.1459 125.598 41.0879Z" fill="#E6E6E6"/>
<path d="M142.654 52.0382C141.926 51.7206 141.334 51.3181 140.879 50.8306C140.43 50.3279 140.17 49.8265 140.099 49.3263L140.625 48.1205C140.629 48.8984 140.812 49.5558 141.173 50.0926C141.542 50.6143 142.112 51.0439 142.886 51.3813C143.629 51.7055 144.327 51.7393 144.981 51.4828C145.641 51.2111 146.13 50.7113 146.448 49.9832C146.719 49.3614 146.798 48.8274 146.686 48.3812C146.58 47.9199 146.315 47.3891 145.891 46.7888L145.245 45.9112C144.789 45.2607 144.447 44.7599 144.222 44.4086C144.017 44.0487 143.884 43.6926 143.821 43.3402C143.765 42.9726 143.819 42.5993 143.985 42.2201C144.249 41.6134 144.673 41.2207 145.257 41.0419C145.84 40.8632 146.473 40.9226 147.156 41.2204C147.99 41.5843 148.605 42.0782 149.001 42.7022L148.564 43.7032C148.365 42.8763 147.826 42.2709 146.946 41.8872C146.461 41.6755 146.014 41.6248 145.604 41.7351C145.195 41.8455 144.908 42.0902 144.743 42.4694C144.597 42.8031 144.559 43.1385 144.628 43.4758C144.705 43.7979 144.856 44.1345 145.082 44.4858C145.323 44.8437 145.73 45.4004 146.303 46.1559C146.884 46.9332 147.255 47.6363 147.414 48.2653C147.579 48.8791 147.5 49.5576 147.176 50.3008C146.765 51.2412 146.124 51.8639 145.25 52.169C144.399 52.4655 143.533 52.4219 142.654 52.0382Z" fill="#E6E6E6"/>
<path d="M153.268 44.1878L153.94 44.6117L152.482 46.9207C153.337 46.4035 154.309 46.1657 155.398 46.2073C156.496 46.2349 157.486 46.527 158.367 47.0833C159.277 47.6574 159.968 48.4068 160.441 49.3315C160.928 50.265 161.157 51.251 161.128 52.2892C161.099 53.3275 160.802 54.2944 160.237 55.19C159.671 56.0856 158.927 56.7699 158.002 57.243C157.077 57.716 156.089 57.9336 155.036 57.8956C153.998 57.8665 153.024 57.5649 152.115 56.9908C151.261 56.4521 150.581 55.7001 150.075 54.7349C149.583 53.7786 149.365 52.7901 149.422 51.7695L145.329 58.2555L144.657 57.8316L153.268 44.1878ZM152.527 56.4296C153.297 56.9153 154.134 57.1699 155.039 57.1931C155.953 57.2024 156.807 56.9974 157.6 56.5782C158.415 56.1538 159.07 55.5497 159.565 54.7661C160.051 53.9964 160.31 53.1521 160.342 52.2331C160.374 51.3142 160.185 50.4512 159.774 49.6443C159.373 48.8234 158.787 48.1701 158.017 47.6843C157.248 47.1986 156.399 46.9467 155.471 46.9286C154.557 46.9193 153.686 47.1224 152.856 47.538C152.04 47.9624 151.389 48.5594 150.904 49.3291C150.418 50.0987 150.159 50.9431 150.127 51.862C150.118 52.7759 150.321 53.6476 150.736 54.4774C151.161 55.2931 151.758 55.9439 152.527 56.4296Z" fill="#E6E6E6"/>
<path d="M162.232 64.6885C161.459 63.9645 160.921 63.0982 160.619 62.0896C160.317 61.081 160.278 60.0696 160.502 59.0554C160.738 58.0292 161.212 57.1356 161.925 56.3748C162.638 55.6139 163.493 55.0884 164.49 54.7982C165.498 54.496 166.516 54.4627 167.542 54.6984C168.568 54.9341 169.468 55.4139 170.241 56.1379C171.026 56.8731 171.571 57.7802 171.875 58.859C172.191 59.9257 172.177 60.9213 171.832 61.8457L173.75 59.7986L174.33 60.3416L166.694 68.4937L166.114 67.9507L168.015 65.9218C167.055 66.2926 166.039 66.361 164.966 66.1269C163.916 65.8919 163.005 65.4125 162.232 64.6885ZM162.743 64.2152C163.408 64.8374 164.182 65.2452 165.066 65.4387C165.962 65.6201 166.839 65.5797 167.696 65.3175C168.578 65.0546 169.335 64.5849 169.968 63.9086C170.59 63.2444 171.004 62.464 171.209 61.5676C171.414 60.6711 171.391 59.788 171.14 58.9182C170.9 58.0363 170.448 57.2842 169.784 56.6621C169.12 56.0399 168.334 55.6325 167.426 55.4397C166.53 55.2583 165.636 55.2934 164.743 55.5451C163.861 55.808 163.11 56.2716 162.488 56.9359C161.865 57.6001 161.452 58.3805 161.247 59.2769C161.066 60.1726 161.101 61.067 161.352 61.9602C161.615 62.8414 162.079 63.593 162.743 64.2152Z" fill="#E6E6E6"/>
<path d="M170.963 74.4366C170.315 73.5785 169.921 72.6318 169.781 71.5964C169.652 70.5742 169.784 69.5826 170.178 68.6214C170.571 67.6602 171.217 66.8404 172.115 66.1619C172.946 65.5334 173.872 65.166 174.891 65.0597C175.923 64.9434 176.925 65.0887 177.896 65.4955C178.877 65.9156 179.702 66.5679 180.37 67.4524C180.929 68.1917 181.289 68.9151 181.45 69.6228C181.612 70.3304 181.631 71.1247 181.509 72.0054L180.439 72.8136C180.757 71.889 180.876 71.0314 180.797 70.2407C180.741 69.4533 180.414 68.6635 179.816 67.8714C179.267 67.1453 178.557 66.6035 177.685 66.2459C176.836 65.8916 175.951 65.7624 175.028 65.8584C174.105 65.9545 173.28 66.2768 172.554 66.8256C171.762 67.4242 171.189 68.1477 170.834 68.9963C170.493 69.8348 170.379 70.699 170.491 71.5889C170.627 72.4819 170.969 73.2915 171.518 74.0176C172.635 75.4962 174.19 76.1674 176.182 76.031L175.112 76.8391C174.252 76.743 173.476 76.4993 172.786 76.1079C172.12 75.7198 171.512 75.1627 170.963 74.4366Z" fill="#E6E6E6"/>
<path d="M177.511 83.5423C177.916 84.3018 178.498 84.9198 179.258 85.3963C180.018 85.8728 180.861 86.1546 181.789 86.2418L180.672 86.8368C179.785 86.6153 179.032 86.2571 178.412 85.7622C177.807 85.2596 177.287 84.5993 176.851 83.7814C176.369 82.8758 176.155 81.893 176.209 80.8331C176.271 79.7877 176.575 78.8101 177.122 77.9003C177.676 77.0052 178.406 76.3165 179.312 75.8343C180.291 75.3132 181.291 75.0802 182.314 75.1354C183.352 75.1828 184.304 75.4914 185.17 76.0614C186.043 76.646 186.745 77.4349 187.274 78.4281C188.082 79.9471 188.172 81.5586 187.542 83.2626L177.087 79.9999C176.949 80.6919 176.906 81.3148 176.957 81.8687C177.023 82.4148 177.208 82.9727 177.511 83.5423ZM179.751 76.5004C178.539 77.1459 177.716 78.0998 177.282 79.362L187.075 82.3862C187.242 81.6787 187.293 81.0519 187.227 80.5058C187.176 79.9519 186.983 79.3609 186.648 78.7328C186.174 77.8419 185.553 77.1509 184.785 76.6598C184.04 76.1756 183.226 75.9151 182.344 75.8786C181.463 75.842 180.598 76.0492 179.751 76.5004Z" fill="#E6E6E6"/>
</svg>
