<svg width="228" height="228" viewBox="0 0 228 228" fill="none" xmlns="http://www.w3.org/2000/svg">
<path d="M200.463 116.114L200.414 116.918C200.295 118.835 199.691 120.298 198.601 121.307C197.528 122.317 196.138 122.769 194.432 122.663C193.246 122.59 192.206 122.265 191.313 121.688C190.435 121.112 189.772 120.361 189.324 119.437C188.891 118.513 188.71 117.499 188.778 116.394L188.79 116.199L182.137 115.788L182.187 114.984L200.463 116.114ZM189.481 116.487C189.39 117.965 189.77 119.203 190.622 120.202C191.489 121.201 192.76 121.753 194.433 121.856C196.025 121.955 197.271 121.583 198.171 120.742C199.087 119.918 199.594 118.694 199.695 117.069L199.707 116.874L189.497 116.243L189.481 116.487Z" fill="#E6E6E6"/>
<path d="M192.355 124.998L192.221 125.768L189.72 125.33C190.449 125.788 190.985 126.361 191.327 127.049C191.667 127.753 191.768 128.498 191.631 129.283C191.544 129.78 191.351 130.267 191.053 130.744L190.163 130.588C190.597 130.185 190.865 129.694 190.966 129.117C191.067 128.54 190.988 127.948 190.731 127.341C190.471 126.75 190.074 126.235 189.539 125.794C189.002 125.37 188.397 125.099 187.724 124.981L181.398 123.875L181.533 123.105L192.355 124.998Z" fill="#E6E6E6"/>
<path d="M192.872 134.852C192.932 134.632 193.064 134.457 193.268 134.327C193.467 134.213 193.685 134.187 193.921 134.251C194.141 134.311 194.308 134.44 194.422 134.64C194.533 134.855 194.558 135.073 194.498 135.293C194.439 135.513 194.309 135.68 194.11 135.795C193.906 135.925 193.694 135.96 193.474 135.901C193.238 135.837 193.065 135.697 192.955 135.482C192.84 135.282 192.813 135.072 192.872 134.852ZM190.547 133.818L190.343 134.572L179.739 131.698L179.943 130.944L190.547 133.818Z" fill="#E6E6E6"/>
<path d="M185.705 147.647L177.153 138.495L189.656 137.579L189.344 138.374L178.812 139.146L186.017 146.852L185.705 147.647Z" fill="#E6E6E6"/>
<path d="M172.341 148.461C172.881 147.57 173.605 146.877 174.515 146.381C175.424 145.885 176.39 145.642 177.411 145.652C178.447 145.67 179.403 145.945 180.28 146.476C181.157 147.008 181.837 147.724 182.319 148.625C182.814 149.534 183.053 150.506 183.035 151.542C183.017 152.577 182.738 153.541 182.198 154.432C181.65 155.337 180.887 156.045 179.911 156.558C178.949 157.078 177.988 157.267 177.028 157.123L179.388 158.553L178.983 159.221L169.586 153.529L169.991 152.86L172.329 154.277C171.777 153.429 171.505 152.465 171.512 151.385C171.525 150.327 171.802 149.352 172.341 148.461ZM172.901 148.857C172.437 149.623 172.202 150.451 172.195 151.341C172.203 152.24 172.42 153.076 172.846 153.848C173.278 154.643 173.884 155.276 174.664 155.748C175.43 156.212 176.265 156.451 177.169 156.466C178.073 156.481 178.919 156.28 179.705 155.862C180.505 155.452 181.137 154.864 181.601 154.098C182.064 153.333 182.297 152.493 182.298 151.581C182.29 150.682 182.075 149.828 181.651 149.02C181.219 148.225 180.62 147.596 179.854 147.132C179.089 146.668 178.254 146.429 177.349 146.414C176.45 146.421 175.597 146.637 174.788 147.06C173.994 147.493 173.364 148.091 172.901 148.857Z" fill="#E6E6E6"/>
<path d="M165.385 158.382C166.142 157.446 167.056 156.898 168.127 156.738C169.188 156.591 170.219 156.922 171.218 157.73L180.104 164.914L179.612 165.522L176.176 162.743L174.058 165.363L173.526 164.934L175.644 162.314L170.727 158.338C169.892 157.662 169.034 157.377 168.154 157.482C167.276 157.609 166.531 158.053 165.917 158.812L165.385 158.382Z" fill="#E6E6E6"/>
<path d="M161.022 163.674C160.415 164.263 159.99 164.982 159.748 165.83C159.505 166.679 159.47 167.553 159.641 168.453L158.773 167.56C158.74 166.662 158.873 165.852 159.171 165.131C159.481 164.422 159.962 163.75 160.616 163.115C161.34 162.412 162.21 161.941 163.227 161.703C164.231 161.476 165.238 161.496 166.247 161.764C167.245 162.043 168.095 162.545 168.798 163.269C169.558 164.051 170.051 164.933 170.279 165.914C170.518 166.908 170.486 167.892 170.184 168.866C169.871 169.851 169.317 170.729 168.523 171.5C167.309 172.68 165.81 173.205 164.028 173.075L164.254 162.305C163.562 162.364 162.962 162.493 162.452 162.693C161.954 162.904 161.478 163.231 161.022 163.674ZM168.289 163.865C167.347 162.896 166.221 162.379 164.91 162.314L164.729 172.395C165.443 172.359 166.049 172.236 166.547 172.024C167.056 171.824 167.562 171.481 168.064 170.993C168.776 170.301 169.26 169.525 169.514 168.666C169.768 167.829 169.791 166.989 169.585 166.146C169.378 165.303 168.946 164.543 168.289 163.865Z" fill="#E6E6E6"/>
<path d="M148.183 172.621C148.829 172.213 149.513 171.984 150.232 171.934C150.96 171.898 151.651 172.049 152.307 172.386C152.962 172.723 153.498 173.221 153.915 173.882L161.603 186.064L160.943 186.481L153.255 174.299C152.907 173.749 152.471 173.331 151.945 173.047C151.405 172.772 150.833 172.642 150.227 172.659C149.63 172.689 149.07 172.869 148.547 173.199L148.183 172.621Z" fill="#E6E6E6"/>
<path d="M141.802 175.701C142.809 175.244 143.832 175.074 144.869 175.193C145.913 175.327 146.85 175.697 147.679 176.304C148.516 176.925 149.153 177.717 149.59 178.681C150.021 179.629 150.191 180.615 150.102 181.639C149.998 182.669 149.653 183.603 149.068 184.441C148.475 185.3 147.682 185.955 146.689 186.406C145.711 186.85 144.711 187.01 143.689 186.884C142.658 186.78 141.728 186.425 140.899 185.818C140.069 185.212 139.439 184.434 139.008 183.486C138.557 182.493 138.366 181.48 138.434 180.448C138.508 179.431 138.834 178.497 139.413 177.644C139.983 176.813 140.779 176.166 141.802 175.701ZM142.084 176.324C141.24 176.707 140.567 177.272 140.065 178.018C139.564 178.764 139.282 179.581 139.22 180.467C139.149 181.375 139.309 182.259 139.699 183.118C140.083 183.963 140.64 184.657 141.37 185.202C142.1 185.746 142.91 186.075 143.802 186.189C144.694 186.302 145.562 186.167 146.407 185.784C147.252 185.4 147.929 184.825 148.438 184.057C148.94 183.311 149.233 182.481 149.318 181.566C149.388 180.658 149.232 179.782 148.848 178.937C148.465 178.092 147.908 177.398 147.178 176.853C146.44 176.33 145.625 176.012 144.733 175.898C143.827 175.792 142.944 175.933 142.084 176.324Z" fill="#E6E6E6"/>
<path d="M130.731 179.749C132.228 179.361 133.492 179.471 134.524 180.078C135.539 180.69 136.241 181.744 136.628 183.241L138.231 189.434L137.475 189.629L135.872 183.437C135.538 182.145 134.94 181.232 134.079 180.698C133.206 180.184 132.147 180.088 130.902 180.41C130.146 180.606 129.495 180.951 128.951 181.445C128.41 181.955 128.038 182.564 127.835 183.272C127.631 183.981 127.632 184.729 127.836 185.517L129.438 191.709L128.682 191.905L125.929 181.269L126.686 181.073L127.199 183.058C127.391 182.303 127.793 181.618 128.408 181.005C129.027 180.408 129.801 179.989 130.731 179.749Z" fill="#E6E6E6"/>
<path d="M125.241 192.474L124.463 192.54L124.256 190.107C123.968 190.949 123.415 191.649 122.597 192.209C121.78 192.785 120.853 193.117 119.815 193.205C118.468 193.319 117.37 192.98 116.518 192.187C115.652 191.411 115.154 190.261 115.024 188.736L114.482 182.363L115.26 182.296L115.802 188.67C115.914 189.984 116.325 190.978 117.036 191.652C117.731 192.329 118.654 192.618 119.805 192.52C120.649 192.448 121.411 192.187 122.091 191.737C122.757 191.305 123.272 190.738 123.637 190.037C123.986 189.338 124.125 188.567 124.053 187.723L123.532 181.593L124.31 181.527L125.241 192.474Z" fill="#E6E6E6"/>
<path d="M107.871 176.856C108.794 176.945 109.673 177.242 110.507 177.748C111.342 178.254 111.969 178.871 112.389 179.598L112.281 180.716C111.935 179.898 111.341 179.186 110.5 178.582C109.643 177.975 108.745 177.627 107.805 177.536C106.25 177.386 105.006 177.731 104.075 178.573C103.144 179.399 102.594 180.695 102.423 182.461L102.266 184.089C102.788 183.257 103.545 182.61 104.538 182.15C105.513 181.705 106.511 181.532 107.532 181.63C108.569 181.731 109.508 182.083 110.349 182.688C111.19 183.292 111.827 184.057 112.261 184.982C112.693 185.923 112.86 186.904 112.761 187.925C112.662 188.946 112.312 189.868 111.709 190.693C111.104 191.534 110.331 192.171 109.39 192.603C108.449 193.035 107.46 193.201 106.423 193.101C105.354 192.997 104.391 192.635 103.536 192.012C102.68 191.39 102.077 190.604 101.728 189.654L101.464 192.376L100.687 192.301L101.646 182.386C101.838 180.393 102.47 178.933 103.541 178.007C104.597 177.062 106.04 176.679 107.871 176.856ZM107.418 182.306C106.526 182.22 105.678 182.367 104.873 182.747C104.066 183.143 103.407 183.701 102.896 184.42C102.367 185.154 102.059 185.974 101.971 186.882C101.884 187.789 102.03 188.645 102.41 189.45C102.772 190.27 103.312 190.944 104.029 191.471C104.745 192.015 105.549 192.33 106.44 192.416C107.347 192.503 108.212 192.35 109.035 191.955C109.841 191.575 110.516 191.019 111.061 190.287C111.588 189.569 111.896 188.757 111.983 187.85C112.071 186.942 111.926 186.078 111.547 185.257C111.151 184.45 110.595 183.774 109.879 183.231C109.145 182.702 108.325 182.394 107.418 182.306Z" fill="#E6E6E6"/>
<path d="M94.4115 179.873C93.5954 179.649 92.7603 179.647 91.9062 179.868C91.052 180.088 90.2802 180.501 89.5908 181.105L89.9211 179.904C90.6787 179.42 91.4438 179.124 92.2164 179.016C92.9846 178.923 93.8081 178.998 94.687 179.24C95.66 179.507 96.5069 180.019 97.2276 180.774C97.9326 181.525 98.4253 182.404 98.7058 183.409C98.9705 184.411 98.9691 185.398 98.7015 186.371C98.4122 187.422 97.9021 188.295 97.1711 188.988C96.4358 189.698 95.5718 190.169 94.5792 190.402C93.5708 190.631 92.533 190.599 91.4659 190.306C89.8337 189.857 88.6218 188.831 87.8301 187.229L97.2292 181.965C96.8279 181.399 96.412 180.947 95.9817 180.609C95.547 180.287 95.0236 180.041 94.4115 179.873ZM97.9287 186.234C98.287 184.932 98.1619 183.699 97.5535 182.535L88.7718 187.488C89.1645 188.086 89.5782 188.546 90.0129 188.868C90.4433 189.206 90.9959 189.467 91.6707 189.653C92.628 189.916 93.5416 189.94 94.4115 189.723C95.2613 189.518 95.9974 189.113 96.6197 188.507C97.242 187.902 97.6783 187.144 97.9287 186.234Z" fill="#E6E6E6"/>
<path d="M81.6957 174.015C82.3853 174.382 82.9347 174.822 83.3438 175.335C83.7453 175.863 83.9616 176.374 83.9925 176.87L83.3843 178.012C83.4403 177.249 83.3116 176.59 82.9982 176.036C82.6771 175.497 82.1502 175.032 81.4175 174.641C80.7135 174.267 80.0313 174.18 79.3708 174.381C78.7026 174.597 78.1849 175.05 77.8177 175.739C77.504 176.329 77.3852 176.846 77.4611 177.292C77.5294 177.753 77.7485 178.294 78.1184 178.915L78.6849 179.825C79.0827 180.498 79.3788 181.015 79.5734 181.377C79.746 181.745 79.8496 182.105 79.8843 182.455C79.9114 182.82 79.8293 183.182 79.638 183.541C79.332 184.116 78.886 184.468 78.3002 184.599C77.7143 184.73 77.0981 184.623 76.4516 184.278C75.6614 183.858 75.0962 183.326 74.7559 182.684L75.2608 181.736C75.3925 182.562 75.875 183.197 76.7083 183.641C77.168 183.885 77.6027 183.969 78.0125 183.893C78.4222 183.816 78.7227 183.598 78.914 183.238C79.0823 182.922 79.1453 182.596 79.1029 182.26C79.0529 181.939 78.9306 181.597 78.7361 181.235C78.5271 180.866 78.1706 180.289 77.6664 179.504C77.1556 178.697 76.8464 177.979 76.7387 177.35C76.6234 176.736 76.7532 176.076 77.1281 175.372C77.6024 174.482 78.2795 173.92 79.1592 173.688C80.0169 173.462 80.8624 173.571 81.6957 174.015Z" fill="#E6E6E6"/>
<path d="M70.6565 180.812L70.0298 180.346L71.6333 178.191C70.756 178.634 69.7848 178.794 68.7199 178.671C67.6452 178.561 66.6966 178.2 65.874 177.587C65.0253 176.956 64.4039 176.169 64.0098 175.226C63.6027 174.274 63.4526 173.289 63.5596 172.273C63.6665 171.257 64.031 170.331 64.653 169.496C65.2749 168.66 66.0572 168.045 66.9998 167.651C67.9425 167.257 68.9283 167.118 69.9574 167.235C70.9735 167.342 71.9059 167.711 72.7546 168.343C73.5511 168.936 74.1611 169.725 74.5846 170.71C74.9951 171.685 75.1338 172.67 75.0007 173.667L79.5051 167.615L80.1319 168.082L70.6565 180.812ZM72.3072 168.862C71.5891 168.328 70.7871 168.015 69.9014 167.924C69.0059 167.846 68.1535 167.982 67.3442 168.334C66.5121 168.688 65.8239 169.231 65.2797 169.962C64.7452 170.68 64.4275 171.489 64.3266 172.388C64.2257 173.287 64.3461 174.147 64.6876 174.97C65.0195 175.805 65.5445 176.49 66.2626 177.024C66.9807 177.559 67.7941 177.87 68.7026 177.958C69.5981 178.036 70.4685 177.903 71.3136 177.558C72.1457 177.203 72.829 176.667 73.3635 175.949C73.898 175.23 74.2157 174.422 74.3166 173.523C74.3947 172.628 74.2613 171.757 73.9164 170.912C73.5617 170.08 73.0254 169.397 72.3072 168.862Z" fill="#E6E6E6"/>
<path d="M63.6236 160.146C64.3274 160.914 64.7897 161.804 65.0105 162.816C65.2314 163.827 65.1937 164.822 64.8976 165.8C64.5895 166.789 64.0574 167.63 63.3014 168.323C62.5454 169.015 61.6675 169.467 60.6676 169.676C59.6557 169.897 58.6553 169.854 57.6665 169.546C56.6777 169.237 55.8314 168.699 55.1276 167.931C54.4128 167.151 53.9465 166.221 53.7287 165.14C53.4989 164.07 53.5875 163.095 53.9946 162.214L51.9606 164.078L51.4328 163.502L59.5328 156.079L60.0607 156.655L58.0446 158.503C59.0136 158.211 60.0154 158.22 61.0502 158.53C62.062 158.839 62.9199 159.378 63.6236 160.146ZM63.0866 160.572C62.4818 159.912 61.753 159.454 60.9001 159.197C60.0353 158.952 59.1724 158.926 58.3115 159.119C57.4276 159.311 56.6496 159.715 55.9776 160.33C55.3176 160.935 54.8536 161.67 54.5855 162.533C54.3174 163.397 54.2738 164.265 54.4546 165.137C54.6234 166.02 55.0103 166.791 55.6151 167.451C56.2199 168.111 56.9602 168.57 57.8361 168.827C58.7009 169.072 59.5808 169.105 60.4757 168.925C61.3596 168.733 62.1316 168.335 62.7916 167.73C63.4516 167.125 63.9156 166.391 64.1837 165.527C64.4288 164.662 64.4615 163.782 64.2816 162.887C64.0898 162.004 63.6915 161.232 63.0866 160.572Z" fill="#E6E6E6"/>
<path d="M55.7658 149.834C56.337 150.725 56.6519 151.683 56.7105 152.709C56.7604 153.721 56.556 154.684 56.0974 155.597C55.6387 156.51 54.9436 157.265 54.012 157.863C53.1489 158.416 52.2136 158.707 51.2063 158.734C50.1853 158.77 49.2139 158.552 48.2921 158.08C47.3616 157.594 46.6019 156.892 46.0131 155.974C45.521 155.207 45.2225 154.47 45.1176 153.764C45.0127 153.058 45.0536 152.277 45.2402 151.423L46.35 150.711C45.9686 151.594 45.7869 152.426 45.8047 153.207C45.8 153.984 46.0613 154.783 46.5886 155.605C47.0719 156.358 47.7275 156.943 48.5554 157.36C49.3609 157.771 50.2198 157.965 51.1323 157.941C52.0448 157.916 52.8778 157.662 53.6313 157.179C54.4533 156.651 55.0701 155.985 55.4817 155.18C55.8795 154.383 56.0569 153.544 56.0138 152.663C55.9482 151.777 55.6737 150.957 55.1903 150.203C54.2061 148.669 52.7321 147.893 50.7684 147.877L51.8781 147.165C52.7151 147.324 53.457 147.622 54.104 148.058C54.7285 148.489 55.2824 149.081 55.7658 149.834Z" fill="#E6E6E6"/>
<path d="M50.0807 140.446C49.7423 139.671 49.2187 139.02 48.51 138.495C47.8013 137.969 46.9955 137.628 46.0926 137.471L47.2339 136.974C48.0864 137.259 48.7975 137.668 49.3673 138.201C49.9222 138.74 50.3819 139.427 50.7463 140.263C51.1498 141.188 51.2844 142.168 51.15 143.203C51.0091 144.223 50.6358 145.159 50.03 146.009C49.4177 146.844 48.6491 147.464 47.7241 147.867C46.7246 148.303 45.7253 148.455 44.7263 148.323C43.7125 148.197 42.8028 147.821 41.9973 147.196C41.1852 146.556 40.558 145.728 40.1154 144.714C39.4386 143.162 39.4743 141.575 40.2225 139.952L50.2251 143.953C50.4132 143.285 50.5033 142.677 50.4955 142.13C50.4728 141.59 50.3345 141.028 50.0807 140.446ZM47.3446 147.181C48.5829 146.64 49.4632 145.768 49.9854 144.563L40.613 140.847C40.3951 141.528 40.2976 142.139 40.3203 142.68C40.3281 143.227 40.4719 143.821 40.7518 144.463C41.1488 145.373 41.7048 146.098 42.42 146.638C43.1138 147.17 43.8917 147.488 44.7537 147.592C45.6157 147.695 46.4793 147.558 47.3446 147.181Z" fill="#E6E6E6"/>
<path d="M26.8385 118.331L26.8229 117.525C26.7858 115.605 27.2696 114.098 28.2741 113.004C29.2623 111.911 30.6108 111.347 32.3195 111.314C33.5075 111.291 34.5703 111.531 35.5079 112.034C36.4293 112.537 37.1509 113.232 37.6726 114.117C38.1781 115.003 38.4416 115.999 38.4629 117.105L38.4667 117.301L45.1307 117.172L45.1463 117.978L26.8385 118.331ZM37.7541 117.07C37.7255 115.589 37.2464 114.386 36.3169 113.459C35.3711 112.533 34.0601 112.087 32.3839 112.119C30.7891 112.15 29.5772 112.621 28.7482 113.532C27.9027 114.428 27.4956 115.689 27.527 117.316L27.5308 117.512L37.7588 117.314L37.7541 117.07Z" fill="#E6E6E6"/>
<path d="M34.2386 108.124L34.3168 107.346L36.8432 107.6C36.0823 107.197 35.506 106.664 35.1144 106.003C34.7245 105.326 34.5694 104.591 34.6493 103.797C34.6998 103.295 34.8563 102.796 35.119 102.298L36.0178 102.389C35.6143 102.823 35.3832 103.331 35.3246 103.914C35.2659 104.497 35.3871 105.082 35.688 105.668C35.9905 106.239 36.4243 106.724 36.9893 107.124C37.5559 107.508 38.1793 107.735 38.8595 107.803L45.2484 108.446L45.1702 109.223L34.2386 108.124Z" fill="#E6E6E6"/>
<path d="M32.9581 98.5569C32.9154 98.7807 32.7973 98.9653 32.6039 99.1107C32.4135 99.2401 32.1984 99.2819 31.9586 99.2362C31.7348 99.1935 31.5582 99.0769 31.4288 98.8866C31.3024 98.6802 31.2606 98.4651 31.3033 98.2412C31.346 98.0174 31.4625 97.8408 31.6529 97.7114C31.8463 97.566 32.055 97.5147 32.2788 97.5574C32.5186 97.6031 32.7017 97.7292 32.8281 97.9355C32.9574 98.1259 33.0008 98.333 32.9581 98.5569ZM35.3551 99.4118L35.5015 98.6443L46.2937 100.703L46.1473 101.47L35.3551 99.4118Z" fill="#E6E6E6"/>
<path d="M39.1322 85.2438L48.3478 93.7272L35.9492 95.5806L36.2007 94.7639L46.6445 93.2027L38.8807 86.0604L39.1322 85.2438Z" fill="#E6E6E6"/>
<path d="M52.3136 83.5539C51.8446 84.484 51.1759 85.2314 50.3078 85.7962C49.4396 86.361 48.4958 86.678 47.4765 86.7473C46.4426 86.8092 45.4679 86.6093 44.5523 86.1475C43.6368 85.6858 42.9039 85.0245 42.3536 84.1636C41.7888 83.2955 41.4755 82.3444 41.4136 81.3106C41.3516 80.2767 41.5552 79.2947 42.0243 78.3646C42.5007 77.42 43.2058 76.6545 44.1396 76.0681C45.0588 75.4744 46.0023 75.2119 46.9702 75.2808L44.5069 74.0385L44.8587 73.3409L54.6685 78.2883L54.3167 78.9858L51.8751 77.7545C52.4911 78.5573 52.8372 79.4975 52.9136 80.5751C52.9827 81.6309 52.7827 82.6238 52.3136 83.5539ZM51.7252 83.2024C52.1284 82.4031 52.2987 81.5593 52.2363 80.6711C52.1593 79.7755 51.8782 78.9592 51.3931 78.2223C50.9007 77.4636 50.2476 76.879 49.4338 76.4686C48.6345 76.0654 47.7834 75.8914 46.8806 75.9465C45.9778 76.0016 45.1507 76.2681 44.3993 76.7459C43.6333 77.2164 43.0488 77.8513 42.6457 78.6507C42.2425 79.45 42.0758 80.3047 42.1454 81.2148C42.2224 82.1104 42.5034 82.9449 42.9885 83.7182C43.4808 84.4769 44.1266 85.0578 44.926 85.4609C45.7253 85.8641 46.5763 86.0381 47.4791 85.983C48.3748 85.906 49.2092 85.625 49.9825 85.14C50.7412 84.6476 51.3221 84.0018 51.7252 83.2024Z" fill="#E6E6E6"/>
<path d="M58.467 73.1423C57.7836 74.1342 56.9141 74.7507 55.8585 74.9919C54.812 75.2197 53.7594 74.9688 52.7005 74.2392L43.2915 67.7564L43.7347 67.113L47.3737 69.6203L49.2853 66.8458L49.8483 67.2337L47.9366 70.0082L53.1438 73.5959C54.0284 74.2054 54.9055 74.4242 55.775 74.2524C56.6403 74.058 57.35 73.5587 57.9041 72.7545L58.467 73.1423Z" fill="#E6E6E6"/>
<path d="M62.4114 67.5011C62.9718 66.8668 63.3406 66.1175 63.5178 65.2532C63.6949 64.3889 63.6639 63.5145 63.4247 62.6298L64.3578 63.4542C64.4592 64.3474 64.3887 65.1647 64.1462 65.9062C63.8916 66.6369 63.4626 67.3438 62.8591 68.0269C62.1909 68.7832 61.3592 69.3189 60.364 69.6342C59.3795 69.9372 58.374 69.9937 57.3475 69.8035C56.3317 69.6011 55.4457 69.1658 54.6894 68.4977C53.8722 67.7756 53.3127 66.9339 53.0111 65.9723C52.6972 65.0001 52.6537 64.0168 52.8805 63.0226C53.1181 62.0163 53.6032 61.0983 54.3361 60.2689C55.4568 59.0003 56.9107 58.3626 58.6976 58.3558L59.2939 69.1123C59.9788 69.0007 60.5676 68.8259 61.0603 68.5879C61.5408 68.3391 61.9911 67.9768 62.4114 67.5011ZM55.1518 67.8637C56.1643 68.7581 57.3267 69.1878 58.6391 69.1528L58.051 59.0877C57.3417 59.1777 56.7467 59.3471 56.2663 59.596C55.7736 59.834 55.2956 60.2153 54.8322 60.7398C54.1748 61.4839 53.7522 62.2941 53.5642 63.1706C53.3749 64.0241 53.4153 64.8634 53.6854 65.6885C53.9555 66.5136 54.4443 67.2386 55.1518 67.8637Z" fill="#E6E6E6"/>
<path d="M74.4066 57.6605C73.7929 58.1172 73.1295 58.398 72.4162 58.5028C71.6931 58.5946 70.992 58.4976 70.3126 58.2119C69.6333 57.9262 69.0604 57.47 68.5939 56.8433L59.9932 45.2879L60.6199 44.8214L69.2207 56.3768C69.6094 56.8991 70.0768 57.2817 70.6228 57.5246C71.1818 57.7577 71.7626 57.8429 72.3651 57.78C72.9578 57.704 73.5023 57.4814 73.9985 57.1121L74.4066 57.6605Z" fill="#E6E6E6"/>
<path d="M80.475 54.0952C79.5059 54.6298 78.4996 54.8781 77.4563 54.8402C76.4052 54.788 75.4425 54.4919 74.5683 53.9517C73.6862 53.3973 72.9896 52.657 72.4786 51.7306C71.9755 50.8184 71.7286 49.8486 71.738 48.821C71.7617 47.7856 72.0325 46.8275 72.5505 45.9469C73.0749 45.0442 73.8146 44.3295 74.7695 43.8027C75.7101 43.2839 76.695 43.0473 77.724 43.0931C78.7595 43.1167 79.7143 43.3987 80.5885 43.9388C81.4627 44.4789 82.1514 45.2051 82.6546 46.1172C83.1813 47.0721 83.451 48.0665 83.4637 49.1005C83.4686 50.1202 83.2159 51.0775 82.7057 51.9723C82.202 52.8451 81.4584 53.5527 80.475 54.0952ZM80.1448 53.4966C80.9572 53.0485 81.5843 52.433 82.0261 51.6502C82.468 50.8674 82.6855 50.0317 82.6787 49.1432C82.6782 48.2326 82.45 47.3639 81.994 46.5373C81.5459 45.725 80.9368 45.0757 80.1668 44.5897C79.3968 44.1036 78.5628 43.8386 77.665 43.7948C76.7672 43.751 75.912 43.9532 75.0997 44.4013C74.2873 44.8495 73.657 45.476 73.2088 46.2809C72.7669 47.0637 72.5391 47.9144 72.5253 48.8329C72.5257 49.7435 72.75 50.605 73.1981 51.4173C73.6462 52.2297 74.2553 52.8789 75.0253 53.365C75.8018 53.829 76.6389 54.0829 77.5367 54.1267C78.4488 54.1626 79.3182 53.9526 80.1448 53.4966Z" fill="#E6E6E6"/>
<path d="M91.3554 49.0965C89.892 49.5959 88.6231 49.5818 87.5487 49.0542C86.4897 48.5213 85.7105 47.5231 85.2111 46.0597L83.1449 40.0059L83.8844 39.7535L85.9505 45.8074C86.3816 47.0705 87.0466 47.9357 87.9455 48.4028C88.8547 48.8492 89.9177 48.8648 91.1346 48.4495C91.874 48.1971 92.4966 47.8041 93.0024 47.2703C93.5029 46.7211 93.8278 46.0857 93.977 45.364C94.1263 44.6423 94.0695 43.8964 93.8066 43.1262L91.7405 37.0723L92.4799 36.82L96.0286 47.2178L95.2892 47.4702L94.6268 45.5292C94.4933 46.2971 94.1432 47.0099 93.5765 47.6677C93.0046 48.31 92.2643 48.7863 91.3554 49.0965Z" fill="#E6E6E6"/>
<path d="M95.6303 36.0095L96.4014 35.8838L96.7944 38.2934C97.0168 37.4326 97.5144 36.6917 98.2872 36.0709C99.0574 35.434 99.9566 35.0318 100.985 34.8641C102.318 34.6466 103.44 34.9007 104.35 35.6263C105.273 36.3333 105.858 37.4418 106.104 38.9518L107.134 45.2651L106.363 45.3909L105.333 39.0776C105.121 37.7764 104.635 36.8167 103.874 36.1986C103.13 35.5779 102.187 35.3606 101.047 35.5466C100.211 35.6829 99.4716 36.0014 98.8276 36.5023C98.1971 36.9844 97.7267 37.5889 97.4165 38.3156C97.1223 39.0398 97.0434 39.8195 97.1796 40.6549L98.1701 46.7272L97.399 46.853L95.6303 36.0095Z" fill="#E6E6E6"/>
<path d="M114.247 50.2009C113.32 50.183 112.421 49.954 111.55 49.5139C110.679 49.0739 110.007 48.5074 109.532 47.8145L109.553 46.6916C109.961 47.4809 110.608 48.1445 111.493 48.6826C112.394 49.2209 113.317 49.4992 114.261 49.5174C115.823 49.5476 117.036 49.107 117.9 48.1958C118.764 47.3008 119.213 45.9664 119.247 44.1925L119.279 42.557C118.822 43.4273 118.117 44.13 117.162 44.6651C116.225 45.1842 115.243 45.4339 114.218 45.4141C113.176 45.394 112.213 45.1149 111.328 44.5769C110.443 44.0389 109.749 43.3255 109.245 42.4366C108.741 41.5315 108.499 40.5664 108.519 39.5411C108.539 38.5159 108.818 37.5689 109.355 36.7002C109.893 35.8152 110.615 35.1209 111.52 34.6175C112.425 34.114 113.399 33.8723 114.44 33.8924C115.514 33.9131 116.502 34.2008 117.403 34.7554C118.304 35.31 118.965 36.0473 119.387 36.9671L119.44 34.2331L120.221 34.2482L120.028 44.2076C119.99 46.2093 119.472 47.7133 118.476 48.7197C117.496 49.7427 116.086 50.2364 114.247 50.2009ZM114.28 44.7316C115.175 44.7488 116.009 44.537 116.783 44.0961C117.557 43.639 118.171 43.0322 118.625 42.2758C119.096 41.5035 119.34 40.6616 119.357 39.7503C119.375 38.839 119.163 37.9965 118.722 37.2229C118.298 36.4332 117.708 35.8032 116.952 35.3328C116.196 34.8461 115.371 34.5941 114.476 34.5768C113.564 34.5592 112.714 34.7789 111.923 35.2357C111.15 35.6766 110.519 36.2831 110.032 37.0551C109.562 37.8112 109.318 38.6449 109.3 39.5562C109.283 40.4675 109.494 41.3181 109.935 42.1081C110.392 42.882 110.998 43.5124 111.754 43.9991C112.527 44.4698 113.368 44.714 114.28 44.7316Z" fill="#E6E6E6"/>
<path d="M127.58 46.142C128.411 46.3038 129.244 46.2421 130.079 45.9569C130.914 45.6717 131.652 45.2019 132.293 44.5474L132.055 45.7696C131.337 46.3096 130.596 46.6629 129.834 46.8296C129.075 46.9803 128.249 46.9686 127.354 46.7944C126.363 46.6015 125.48 46.1559 124.704 45.4576C123.944 44.7624 123.386 43.9241 123.03 42.9427C122.689 41.9645 122.616 40.9801 122.809 39.9895C123.017 38.9191 123.459 38.0103 124.135 37.263C124.815 36.4998 125.64 35.9641 126.612 35.6559C127.6 35.3508 128.638 35.304 129.724 35.5156C131.386 35.8391 132.672 36.7694 133.583 38.3066L124.612 44.2706C125.055 44.8046 125.504 45.2237 125.959 45.5278C126.417 45.816 126.957 46.0207 127.58 46.142ZM123.59 40.0669C123.331 41.393 123.55 42.6129 124.245 43.7266L132.625 38.1199C132.188 37.554 131.74 37.1269 131.282 36.8387C130.827 36.5346 130.256 36.3157 129.569 36.1819C128.595 35.9922 127.682 36.0383 126.831 36.3204C125.999 36.5896 125.296 37.0496 124.722 37.7006C124.147 38.3515 123.77 39.1403 123.59 40.0669Z" fill="#E6E6E6"/>
<path d="M140.417 50.8513C139.701 50.5389 139.119 50.1429 138.671 49.6634C138.23 49.169 137.974 48.6758 137.905 48.1838L138.422 46.9977C138.426 47.7629 138.605 48.4095 138.961 48.9376C139.323 49.4507 139.885 49.8732 140.645 50.2051C141.377 50.524 142.063 50.5573 142.706 50.305C143.356 50.0377 143.836 49.5461 144.149 48.83C144.416 48.2183 144.494 47.693 144.383 47.2542C144.279 46.8004 144.019 46.2783 143.602 45.6878L142.966 44.8246C142.517 44.1848 142.181 43.6921 141.959 43.3466C141.759 42.9926 141.627 42.6423 141.565 42.2957C141.51 41.9341 141.564 41.5669 141.726 41.1939C141.987 40.5971 142.404 40.2108 142.978 40.035C143.552 39.8592 144.174 39.9177 144.846 40.2106C145.666 40.5685 146.271 41.0544 146.66 41.6681L146.231 42.6528C146.035 41.8394 145.505 41.2439 144.639 40.8664C144.162 40.6582 143.722 40.6083 143.32 40.7169C142.917 40.8254 142.634 41.0662 142.472 41.4391C142.329 41.7674 142.291 42.0973 142.36 42.429C142.434 42.7458 142.583 43.077 142.805 43.4225C143.042 43.7746 143.443 44.3222 144.006 45.0653C144.579 45.8299 144.943 46.5215 145.099 47.1402C145.262 47.7439 145.184 48.4113 144.865 49.1423C144.461 50.0673 143.83 50.6799 142.971 50.9799C142.134 51.2716 141.282 51.2287 140.417 50.8513Z" fill="#E6E6E6"/>
<path d="M150.889 43.1472L151.55 43.5642L150.117 45.8353C150.958 45.3266 151.914 45.0927 152.985 45.1336C154.065 45.1608 155.038 45.448 155.905 45.9953C156.8 46.56 157.48 47.2971 157.945 48.2067C158.424 49.1249 158.65 50.0947 158.621 51.116C158.592 52.1372 158.3 53.0883 157.744 53.9693C157.188 54.8502 156.455 55.5233 155.546 55.9886C154.636 56.4539 153.664 56.6679 152.629 56.6306C151.608 56.6019 150.65 56.3053 149.755 55.7406C148.915 55.2107 148.247 54.471 147.749 53.5217C147.265 52.5809 147.051 51.6086 147.107 50.6047L143.08 56.9846L142.42 56.5676L150.889 43.1472ZM150.161 55.1886C150.918 55.6664 151.742 55.9167 152.632 55.9396C153.531 55.9487 154.37 55.7471 155.15 55.3347C155.953 54.9172 156.597 54.3231 157.083 53.5523C157.561 52.7952 157.816 51.9647 157.847 51.0608C157.879 50.1569 157.693 49.3081 157.289 48.5143C156.894 47.7069 156.318 47.0643 155.561 46.5865C154.804 46.1087 153.969 45.8609 153.057 45.8431C152.158 45.8339 151.3 46.0338 150.484 46.4425C149.682 46.86 149.042 47.4472 148.564 48.2043C148.086 48.9613 147.831 49.7918 147.8 50.6958C147.791 51.5946 147.991 52.4521 148.399 53.2683C148.817 54.0707 149.404 54.7108 150.161 55.1886Z" fill="#E6E6E6"/>
<path d="M159.743 63.3399C158.983 62.6278 158.454 61.7757 158.157 60.7836C157.86 59.7915 157.821 58.7966 158.042 57.7991C158.274 56.7896 158.74 55.9107 159.441 55.1623C160.142 54.4139 160.983 53.897 161.964 53.6116C162.956 53.3142 163.957 53.2815 164.967 53.5133C165.976 53.7452 166.861 54.2172 167.621 54.9293C168.393 55.6525 168.929 56.5447 169.229 57.6059C169.539 58.6551 169.525 59.6344 169.187 60.5437L171.073 58.5301L171.643 59.0642L164.132 67.0828L163.562 66.5488L165.431 64.553C164.488 64.9178 163.488 64.9851 162.432 64.7547C161.4 64.5237 160.504 64.0521 159.743 63.3399ZM160.246 62.8744C160.9 63.4864 161.661 63.8875 162.531 64.0779C163.412 64.2563 164.275 64.2166 165.118 63.9587C165.985 63.7 166.73 63.2381 167.353 62.5728C167.965 61.9194 168.372 61.1519 168.573 60.2701C168.775 59.3883 168.752 58.5197 168.505 57.6641C168.27 56.7966 167.825 56.0569 167.172 55.4449C166.518 54.8329 165.745 54.4321 164.852 54.2426C163.971 54.0641 163.091 54.0986 162.213 54.3462C161.346 54.6048 160.607 55.0609 159.995 55.7142C159.383 56.3676 158.976 57.1352 158.775 58.0169C158.596 58.8979 158.631 59.7778 158.878 60.6563C159.137 61.5231 159.593 62.2624 160.246 62.8744Z" fill="#E6E6E6"/>
<path d="M168.362 72.9602C167.724 72.1161 167.337 71.1848 167.2 70.1664C167.072 69.161 167.202 68.1855 167.589 67.2401C167.977 66.2946 168.612 65.4882 169.495 64.8209C170.313 64.2027 171.223 63.8413 172.225 63.7367C173.24 63.6223 174.226 63.7652 175.181 64.1654C176.146 64.5786 176.957 65.2202 177.615 66.0902C178.164 66.8174 178.519 67.529 178.677 68.2251C178.836 68.9212 178.855 69.7024 178.735 70.5688L177.683 71.3636C177.995 70.4543 178.113 69.6107 178.035 68.8329C177.98 68.0584 177.658 67.2815 177.069 66.5024C176.53 65.7882 175.831 65.2552 174.974 64.9035C174.139 64.555 173.268 64.4279 172.36 64.5224C171.452 64.6168 170.641 64.9339 169.927 65.4737C169.148 66.0625 168.584 66.7742 168.235 67.6088C167.9 68.4336 167.787 69.2837 167.898 70.159C168.031 71.0374 168.368 71.8338 168.908 72.548C170.007 74.0024 171.536 74.6625 173.495 74.5284L172.443 75.3233C171.596 75.2287 170.834 74.989 170.155 74.6041C169.5 74.2223 168.902 73.6744 168.362 72.9602Z" fill="#E6E6E6"/>
<path d="M174.822 81.9508C175.22 82.6979 175.793 83.3057 176.54 83.7744C177.288 84.2431 178.118 84.5203 179.03 84.6061L177.931 85.1914C177.059 84.9735 176.318 84.6211 175.709 84.1343C175.113 83.6399 174.602 82.9904 174.173 82.1859C173.699 81.2952 173.488 80.3285 173.542 79.2859C173.603 78.2576 173.902 77.296 174.44 76.4012C174.985 75.5207 175.703 74.8432 176.594 74.3689C177.556 73.8563 178.541 73.6272 179.547 73.6814C180.568 73.7281 181.504 74.0317 182.356 74.5923C183.215 75.1674 183.905 75.9433 184.425 76.9203C185.221 78.4144 185.309 79.9995 184.689 81.6756L174.405 78.4664C174.27 79.147 174.227 79.7598 174.278 80.3046C174.343 80.8418 174.524 81.3905 174.822 81.9508ZM177.026 75.0241C175.833 75.6591 175.024 76.5973 174.597 77.8389L184.23 80.8136C184.394 80.1177 184.444 79.5011 184.379 78.9639C184.329 78.4191 184.139 77.8378 183.81 77.22C183.343 76.3437 182.733 75.664 181.977 75.1809C181.244 74.7046 180.444 74.4485 179.577 74.4125C178.709 74.3765 177.859 74.5804 177.026 75.0241Z" fill="#E6E6E6"/>
</svg>
